<svg width="98" height="35" viewBox="0 0 98 35" fill="none" xmlns="http://www.w3.org/2000/svg">
<path d="M31.1659 29.3824C29.7724 29.3824 28.5488 29.0807 27.4951 28.4774C26.4415 27.8741 25.6172 27.0372 25.0224 25.9665C24.4361 24.8959 24.143 23.6638 24.143 22.2702C24.143 20.7662 24.4319 19.4619 25.0097 18.3573C25.5875 17.2442 26.3905 16.3817 27.4186 15.7699C28.4468 15.1581 29.6364 14.8522 30.9875 14.8522C32.415 14.8522 33.6258 15.1878 34.62 15.8591C35.6227 16.5219 36.3662 17.4608 36.8505 18.6759C37.3348 19.891 37.5175 21.3228 37.3986 22.9713H34.3523V21.8496C34.3438 20.3541 34.0804 19.2622 33.5621 18.574C33.0438 17.8857 32.228 17.5416 31.1149 17.5416C29.8573 17.5416 28.9226 17.9324 28.3108 18.7142C27.6991 19.4874 27.3932 20.6218 27.3932 22.1173C27.3932 23.5108 27.6991 24.59 28.3108 25.3547C28.9226 26.1195 29.8148 26.5018 30.9875 26.5018C31.7437 26.5018 32.3937 26.3361 32.9376 26.0047C33.4899 25.6649 33.9147 25.1763 34.2121 24.539L37.2456 25.4567C36.7188 26.6973 35.9031 27.6617 34.7984 28.35C33.7023 29.0382 32.4915 29.3824 31.1659 29.3824ZM26.4245 22.9713V20.6515H35.8946V22.9713H26.4245ZM46.5006 29.3824C45.1071 29.3824 43.8835 29.0807 42.8299 28.4774C41.7762 27.8741 40.952 27.0372 40.3572 25.9665C39.7709 24.8959 39.4777 23.6638 39.4777 22.2702C39.4777 20.7662 39.7666 19.4619 40.3444 18.3573C40.9222 17.2442 41.7252 16.3817 42.7534 15.7699C43.7815 15.1581 44.9712 14.8522 46.3222 14.8522C47.7497 14.8522 48.9606 15.1878 49.9547 15.8591C50.9574 16.5219 51.7009 17.4608 52.1853 18.6759C52.6696 19.891 52.8523 21.3228 52.7333 22.9713H49.6871V21.8496C49.6786 20.3541 49.4152 19.2622 48.8968 18.574C48.3785 17.8857 47.5628 17.5416 46.4497 17.5416C45.1921 17.5416 44.2574 17.9324 43.6456 18.7142C43.0338 19.4874 42.7279 20.6218 42.7279 22.1173C42.7279 23.5108 43.0338 24.59 43.6456 25.3547C44.2574 26.1195 45.1496 26.5018 46.3222 26.5018C47.0785 26.5018 47.7285 26.3361 48.2723 26.0047C48.8246 25.6649 49.2495 25.1763 49.5469 24.539L52.5804 25.4567C52.0535 26.6973 51.2378 27.6617 50.1332 28.35C49.037 29.0382 47.8262 29.3824 46.5006 29.3824ZM41.7592 22.9713V20.6515H51.2293V22.9713H41.7592ZM55.5517 29L55.5772 10.6461H58.6872V21.8624L63.7218 15.2346H67.5582L62.2178 22.1173L68.0171 29H63.9512L58.6872 22.3722V29H55.5517ZM75.3031 29.3824C73.9095 29.3824 72.6859 29.0807 71.6323 28.4774C70.5786 27.8741 69.7544 27.0372 69.1596 25.9665C68.5733 24.8959 68.2802 23.6638 68.2802 22.2702C68.2802 20.7662 68.5691 19.4619 69.1469 18.3573C69.7247 17.2442 70.5277 16.3817 71.5558 15.7699C72.584 15.1581 73.7736 14.8522 75.1246 14.8522C76.5522 14.8522 77.763 15.1878 78.7572 15.8591C79.7598 16.5219 80.5033 17.4608 80.9877 18.6759C81.472 19.891 81.6547 21.3228 81.5358 22.9713H78.4895V21.8496C78.481 20.3541 78.2176 19.2622 77.6993 18.574C77.1809 17.8857 76.3652 17.5416 75.2521 17.5416C73.9945 17.5416 73.0598 17.9324 72.448 18.7142C71.8362 19.4874 71.5303 20.6218 71.5303 22.1173C71.5303 23.5108 71.8362 24.59 72.448 25.3547C73.0598 26.1195 73.952 26.5018 75.1246 26.5018C75.8809 26.5018 76.5309 26.3361 77.0747 26.0047C77.6271 25.6649 78.0519 25.1763 78.3493 24.539L81.3828 25.4567C80.856 26.6973 80.0402 27.6617 78.9356 28.35C77.8395 29.0382 76.6286 29.3824 75.3031 29.3824ZM70.5617 22.9713V20.6515H80.0318V22.9713H70.5617ZM92.4477 29C91.5385 29.1699 90.6463 29.2422 89.7711 29.2167C88.9044 29.1997 88.1269 29.0425 87.4386 28.7451C86.7504 28.4392 86.2278 27.9591 85.8709 27.3048C85.5565 26.71 85.3908 26.1025 85.3738 25.4822C85.3568 24.8619 85.3483 24.1609 85.3483 23.3791V11.4108H88.4073V23.2007C88.4073 23.753 88.4116 24.2373 88.4201 24.6537C88.4371 25.0701 88.5263 25.4099 88.6877 25.6734C88.9936 26.1832 89.4822 26.4678 90.1535 26.5273C90.8248 26.5868 91.5895 26.5528 92.4477 26.4254V29ZM82.8502 17.6435V15.2346H92.4477V17.6435H82.8502Z" fill="#0052F6"/>
<path d="M8.77979 28.2263V10.0449C8.77979 9.34614 9.34627 8.77966 10.0451 8.77966H15.4806C16.1794 8.77966 16.7459 9.34615 16.7459 10.0449V28.2263C16.7459 28.925 16.1794 29.4915 15.4806 29.4915H10.0451C9.34627 29.4915 8.77979 28.925 8.77979 28.2263Z" fill="#0052F6" stroke="#0052F6" stroke-width="0.316318"/>
<path d="M26.3051 4.69675V2.43263C26.3051 1.53838 25.3411 0.813477 24.1521 0.813477H2.96648C1.77749 0.813439 0.813538 1.53834 0.813538 2.43259V4.71184C1.90674 4.82992 2.74801 5.53506 2.74801 6.38984C2.74801 7.24462 1.90674 7.94984 0.813538 8.06762V10.3472C0.813538 11.2411 1.77749 11.966 2.96648 11.966H24.152C25.341 11.966 26.305 11.2411 26.305 10.3472V8.08271C25.1088 8.04063 24.1555 7.29996 24.1555 6.38988C24.1556 5.47983 25.1089 4.73917 26.3051 4.69675ZM6.86354 10.9445H6.12284V9.49175H6.86354V10.9445ZM6.86354 8.39218H6.12284V6.93949H6.86354V8.39218ZM6.86354 5.83997H6.12284V4.38694H6.86354V5.83997ZM6.86354 3.28775H6.12284V1.83502H6.86354V3.28775Z" fill="#0052F6"/>
</svg>
